<mxfile host="65bd71144e">
    <diagram id="u-oU5NTy3lEyTesoFEB6" name="第 1 页">
        <mxGraphModel dx="521" dy="499" grid="1" gridSize="10" guides="1" tooltips="1" connect="1" arrows="1" fold="1" page="1" pageScale="1" pageWidth="1169" pageHeight="827" math="0" shadow="0">
            <root>
                <mxCell id="0"/>
                <mxCell id="1" parent="0"/>
                <mxCell id="2" value="服务器后端技术架构" style="swimlane;whiteSpace=wrap;html=1;fontSize=17;" vertex="1" parent="1">
                    <mxGeometry x="40" y="50" width="380" height="200" as="geometry"/>
                </mxCell>
                <mxCell id="3" value="Node.js" style="whiteSpace=wrap;html=1;aspect=fixed;fontSize=17;" vertex="1" parent="2">
                    <mxGeometry x="40" y="70" width="80" height="80" as="geometry"/>
                </mxCell>
                <mxCell id="4" value="Koa" style="whiteSpace=wrap;html=1;aspect=fixed;fontSize=17;" vertex="1" parent="2">
                    <mxGeometry x="150" y="70" width="80" height="80" as="geometry"/>
                </mxCell>
                <mxCell id="5" value="MariaDB" style="whiteSpace=wrap;html=1;aspect=fixed;fontSize=17;" vertex="1" parent="2">
                    <mxGeometry x="260" y="70" width="80" height="80" as="geometry"/>
                </mxCell>
            </root>
        </mxGraphModel>
    </diagram>
</mxfile>